# xmcd CD database file generated by Grip 2.98.4
# 
# Track frame offsets:
#       150
#       11697
#       40935
#       51070
#       65447
#       88077
#       116725
#       142125
#       154642
#       173057
#       190872
#       215602
#       228895
#       241312
#       258402
#       277032
#       299682
# 
# Disc length: 4173 secs
# 
# Revision: 4
# Processed by: cddbd v1.4PL0 Copyright (c) Steve Scherf et al.
# Submitted via: Grip 2.98.4
# 
DISCID=fd104b11
DTITLE=Various Artist - Belly Up To The Blues
DYEAR=1994
DGENRE=Blues
TTITLE0=High Fivin' White Boy - Buddy Blue Band
TTITLE1=Cold Hearted Woman - Fuzzy and The Bluesmen
TTITLE2=Out Of My Mind - Billy Bacon and The Forbidden Pigs
TTITLE3=Mahtochiquala - Robin Henkel
TTITLE4=If The Blues Had Wings - Willie Jaye Band
TTITLE5=Lost In Love - Singin' Kings
TTITLE6=Workin' For Nickels And Dimes - Mississippi Mudsharks
TTITLE7=As A Matter Of Fact I Do - Hot Rod Lincoln
TTITLE8=Wild Horses - Ruby And The Redhots
TTITLE9=That's What You Do To Me - King Biscuit Blues
TTITLE10=Lonesome Journey - Jonny Viau and The Blues Allstars
TTITLE11=Cryin' Shame - Rick Gazlay
TTITLE12=I'm Alone - Sugerdaddy's
TTITLE13=Gotta Find My Baby - Lafayette and The Koko Blues Band
TTITLE14=Sweet Hip Flo - Blonde Bruce
TTITLE15=Slow Down Baby - Len Rainey and The Midnight Players
TTITLE16=Doug's Boogie - Doug Randall
EXTD=
EXTT0=
EXTT1=
EXTT2=
EXTT3=
EXTT4=
EXTT5=
EXTT6=
EXTT7=
EXTT8=
EXTT9=
EXTT10=
EXTT11=
EXTT12=
EXTT13=
EXTT14=
EXTT15=
EXTT16=
PLAYORDER=
